<?xml version="1.0" standalone="no"?><svg viewBox="0 0 800 800" xmlns="http://www.w3.org/2000/svg" xmlns:xlink="http://www.w3.org/1999/xlink"><style>:root>svg{display:none}:root>svg:target{display:block}</style><svg version="1.0" viewBox="0 0 64 64" id="day" xmlns="http://www.w3.org/2000/svg"><path d="M24 7c0 2.9.4 4 1.5 4S27 9.9 27 7s-.4-4-1.5-4S24 4.1 24 7zM31 31.5C15.9 46.6 3.9 59.3 4.3 59.7 5.1 60.4 60 6.2 60 4.8c0-.5-.3-.8-.8-.8-.4 0-13.1 12.4-28.2 27.5zM9 9.8c0 1.4 5.9 6.6 6.7 5.9.3-.4-.6-2.1-2.2-3.7C10.7 9 9 8.2 9 9.8zM37.6 11.9c-1.5 1.6-2.3 3.1-1.8 3.5 1.3.8 6.2-3.2 6.2-5 0-2.1-1.3-1.7-4.4 1.5zM20.3 15.6C17 17.3 14 22.2 14 26.2c0 2.5 3.4 8.8 4.8 8.8 2 0 2-1.4.2-3.8-6.6-8.3 4-18.7 12.3-12.2 1.6 1.3 2.8 1.6 3.2 1 .9-1.5-.4-3.1-4.1-4.6-4.2-1.8-6.1-1.7-10.1.2zM55.2 22.6c-1.2 1.3-1.1 1.8.4 3.5 2.2 2.4 2.6 2.4 4.2-.1 1-1.7 1-2.3-.2-3.5-1.8-1.9-2.7-1.8-4.4.1zM3 25.5C3 26.6 4.1 27 7 27s4-.4 4-1.5S9.9 24 7 24s-4 .4-4 1.5zM42.3 33.5C31.9 38 32.9 54.2 43.8 58c3.7 1.3 4.7 1.3 8.4 0 4.9-1.7 8.8-6.7 8.8-11.1 0-3.2-.6-3.5-3.4-1.4-4.5 3.4-11.6.4-11.6-4.9 0-1.3.9-3.5 2-4.8 3-3.9.4-5-5.7-2.3zm1.9 6c-.4 3.9 0 4.8 2.7 7.6 2.8 2.8 3.7 3.1 7.1 2.6 3.6-.5 3.9-.3 3 1.3-3.1 5.7-11.1 6.7-16.2 2.1-4.8-4.3-4.8-10.9 0-15.2 1.8-1.6 3.3-2.9 3.5-2.9.1 0 .1 2-.1 4.5zM11.5 38c-2.9 3-2.7 5.3.2 3.4 2.4-1.5 4.6-5.1 3.5-5.8-.5-.3-2.2.8-3.7 2.4zM25.8 55.9c-1.6 1.6-1.6 1.8.4 3.6 1.5 1.2 2.3 1.4 2.6.7.2-.7 1-1.2 1.8-1.2 2 0 1.7-1.3-.6-3.3-2.4-2-2.1-2-4.2.2z"/></svg><svg version="1.0" viewBox="0 0 64 64" id="night" xmlns="http://www.w3.org/2000/svg"><path d="M24 7c0 2.9.4 4 1.5 4S27 9.9 27 7s-.4-4-1.5-4S24 4.1 24 7zM31 31.5C15.9 46.6 3.9 59.3 4.3 59.7 5.1 60.4 60 6.2 60 4.8c0-.5-.3-.8-.8-.8-.4 0-13.1 12.4-28.2 27.5zM9 9.8c0 1.4 5.9 6.6 6.7 5.9.3-.4-.6-2.1-2.2-3.7C10.7 9 9 8.2 9 9.8zM37.6 11.9c-1.5 1.6-2.3 3.1-1.8 3.5 1.3.8 6.2-3.2 6.2-5 0-2.1-1.3-1.7-4.4 1.5zM20.3 15.6C17 17.3 14 22.2 14 26.2c0 2.4 3.4 8.8 4.8 8.8 1.7 0 16.4-15.8 15.7-17-.9-1.5-6.8-4-9.2-4-1 0-3.2.8-5 1.6zM55.2 22.6c-1.2 1.3-1.1 1.8.4 3.5 2.2 2.4 2.6 2.4 4.2-.1 1-1.7 1-2.3-.2-3.5-1.8-1.9-2.7-1.8-4.4.1zM3 25.5C3 26.6 4.1 27 7 27s4-.4 4-1.5S9.9 24 7 24s-4 .4-4 1.5zM42.3 33.5C31.9 38 32.9 54.2 43.8 58c3.7 1.3 4.7 1.3 8.4 0 4.9-1.7 8.8-6.7 8.8-11.3 0-2.7-.2-2.9-1.2-1.4-1.7 2.1-6.3 3.8-8.5 3-6.4-2.2-8.3-9.4-3.8-13.8 2.4-2.5 2.4-2.5.2-2.5-1.2.1-3.7.7-5.4 1.5zM11.5 38c-2.9 3-2.7 5.3.2 3.4 2.4-1.5 4.6-5.1 3.5-5.8-.5-.3-2.2.8-3.7 2.4zM25.8 55.9c-1.6 1.6-1.6 1.8.4 3.6 1.5 1.2 2.3 1.4 2.6.7.2-.7 1-1.2 1.8-1.2 2 0 1.7-1.3-.6-3.3-2.4-2-2.1-2-4.2.2z"/></svg><svg viewBox="0 0 12 12" xml:space="preserve" id="phone" xmlns="http://www.w3.org/2000/svg"><path d="M6.248 8.481a.481.481 0 0 1-.682 0L3.519 6.434a.481.481 0 0 1 0-.682L4.542 4.73 1.813 2l-.682.682a3.857 3.857 0 0 0 0 5.458l2.73 2.729a3.851 3.851 0 0 0 5.457 0l.682-.682-2.729-2.73-1.023 1.024zM6.5 1H6v1h.5C8.43 2 10 3.57 10 5.5V6h1v-.5C11 3.019 8.981 1 6.5 1z"/><path d="M8 5.5V6h1v-.5C9 4.122 7.878 3 6.5 3H6v1h.5C7.327 4 8 4.673 8 5.5z"/></svg><svg viewBox="0 0 32 32" id="tg" xmlns="http://www.w3.org/2000/svg"><path d="m29.919 6.163-4.225 19.925c-.319 1.406-1.15 1.756-2.331 1.094l-6.438-4.744-3.106 2.988c-.344.344-.631.631-1.294.631l.463-6.556L24.919 8.72c.519-.462-.113-.719-.806-.256l-14.75 9.288-6.35-1.988c-1.381-.431-1.406-1.381.288-2.044l24.837-9.569c1.15-.431 2.156.256 1.781 2.013z"/></svg><svg viewBox="0 0 24 24" id="vk" xmlns="http://www.w3.org/2000/svg"><path d="M23.456 5.784a8.605 8.605 0 0 1-1.09 2.259l.019-.03q-.672 1.12-1.605 2.588-.8 1.159-.847 1.2a1.28 1.28 0 0 0-.267.618l-.001.007a.897.897 0 0 0 .268.535l.4.446q3.21 3.299 3.611 4.548a.89.89 0 0 1-.112.829l.002-.003a.965.965 0 0 1-.784.289h.004H20.418c-.337 0-.647-.118-.89-.314l.003.002a6.928 6.928 0 0 1-.951-.948l-.009-.012q-.691-.781-1.226-1.315-1.782-1.694-2.63-1.694a.788.788 0 0 0-.516.135l.003-.002a.767.767 0 0 0-.16.584v-.004a12.532 12.532 0 0 0-.038 1.403v-.017 1.159a.78.78 0 0 1-.266.757l-.001.001a3.179 3.179 0 0 1-1.617.267l.013.001a8.323 8.323 0 0 1-4.275-1.268l.035.02A11.931 11.931 0 0 1 4.176 14.3l-.027-.042a26.36 26.36 0 0 1-2.471-3.992l-.07-.154A24.657 24.657 0 0 1 .375 7.31l-.06-.185a6.646 6.646 0 0 1-.31-1.535l-.002-.025q0-.758.892-.758h2.63a1.058 1.058 0 0 1 .739.225l-.002-.002c.2.219.348.488.421.788l.003.012a25.422 25.422 0 0 0 1.587 3.615l-.067-.137a14.56 14.56 0 0 0 1.623 2.576l-.023-.031q.8.982 1.248.982l.032.001a.4.4 0 0 0 .347-.2l.001-.002a1.783 1.783 0 0 0 .111-.787v.006-3.879a3.211 3.211 0 0 0-.32-1.267l.008.019a2.956 2.956 0 0 0-.45-.695l.003.004a1.099 1.099 0 0 1-.311-.619l-.001-.006c0-.17.078-.323.2-.423l.001-.001a.678.678 0 0 1 .46-.178h4.154a.634.634 0 0 1 .559.222l.001.001a1.36 1.36 0 0 1 .159.763v-.005 5.173a.993.993 0 0 0 .136.584l-.002-.004a.401.401 0 0 0 .333.178h.001a.946.946 0 0 0 .471-.162l-.003.002c.272-.187.506-.4.709-.641l.004-.005a15.606 15.606 0 0 0 1.655-2.25l.039-.07c.344-.57.716-1.272 1.053-1.993l.062-.147.446-.892a1.122 1.122 0 0 1 1.117-.759h-.003 2.631q1.066 0 .8.981z"/></svg><svg viewBox="0 0 24 24" id="wa" xmlns="http://www.w3.org/2000/svg"><path fill="none" d="M0 0h24v24H0z"/><path d="m2.004 22 1.352-4.968A9.954 9.954 0 0 1 2 12C2 6.477 6.477 2 12 2s10 4.477 10 10-4.477 10-10 10a9.954 9.954 0 0 1-5.03-1.355L2.004 22zM8.391 7.308a.961.961 0 0 0-.371.1 1.293 1.293 0 0 0-.294.228c-.12.113-.188.211-.261.306A2.729 2.729 0 0 0 6.9 9.62c.002.49.13.967.33 1.413.409.902 1.082 1.857 1.971 2.742.214.213.423.427.648.626a9.448 9.448 0 0 0 3.84 2.046l.569.087c.185.01.37-.004.556-.013a1.99 1.99 0 0 0 .833-.231 4.83 4.83 0 0 0 .383-.22s.043-.028.125-.09c.135-.1.218-.171.33-.288.083-.086.155-.187.21-.302.078-.163.156-.474.188-.733.024-.198.017-.306.014-.373-.004-.107-.093-.218-.19-.265l-.582-.261s-.87-.379-1.401-.621a.498.498 0 0 0-.177-.041.482.482 0 0 0-.378.127v-.002c-.005 0-.072.057-.795.933a.35.35 0 0 1-.368.13 1.416 1.416 0 0 1-.191-.066c-.124-.052-.167-.072-.252-.109l-.005-.002a6.01 6.01 0 0 1-1.57-1c-.126-.11-.243-.23-.363-.346a6.296 6.296 0 0 1-1.02-1.268l-.059-.095a.923.923 0 0 1-.102-.205c-.038-.147.061-.265.061-.265s.243-.266.356-.41a4.38 4.38 0 0 0 .263-.373c.118-.19.155-.385.093-.536-.28-.684-.57-1.365-.868-2.041-.059-.134-.234-.23-.393-.249-.054-.006-.108-.012-.162-.016a3.385 3.385 0 0 0-.403.004z"/></svg></svg>