<?xml version="1.0" standalone="no"?>
<!DOCTYPE svg PUBLIC "-//W3C//DTD SVG 20010904//EN"
 "http://www.w3.org/TR/2001/REC-SVG-20010904/DTD/svg10.dtd">
<svg version="1.0" xmlns="http://www.w3.org/2000/svg"
 width="64.000000pt" height="64.000000pt" viewBox="0 0 64.000000 64.000000"
 preserveAspectRatio="xMidYMid meet">

<g transform="translate(0.000000,64.000000) scale(0.100000,-0.100000)"
fill="#000000" stroke="none">
<path d="M240 570 c0 -29 4 -40 15 -40 11 0 15 11 15 40 0 29 -4 40 -15 40
-11 0 -15 -11 -15 -40z"/>
<path d="M310 325 c-151 -151 -271 -278 -267 -282 8 -7 557 535 557 549 0 5
-3 8 -8 8 -4 0 -131 -124 -282 -275z"/>
<path d="M90 542 c0 -14 59 -66 67 -59 3 4 -6 21 -22 37 -28 30 -45 38 -45 22z"/>
<path d="M376 521 c-15 -16 -23 -31 -18 -35 13 -8 62 32 62 50 0 21 -13 17
-44 -15z"/>
<path d="M203 484 c-33 -17 -63 -66 -63 -106 0 -24 34 -88 48 -88 17 0 164
158 157 170 -9 15 -68 40 -92 40 -10 0 -32 -8 -50 -16z"/>
<path d="M552 414 c-12 -13 -11 -18 4 -35 22 -24 26 -24 42 1 10 17 10 23 -2
35 -18 19 -27 18 -44 -1z"/>
<path d="M30 385 c0 -11 11 -15 40 -15 29 0 40 4 40 15 0 11 -11 15 -40 15
-29 0 -40 -4 -40 -15z"/>
<path d="M423 305 c-104 -45 -94 -207 15 -245 37 -13 47 -13 84 0 49 17 88 67
88 113 0 27 -2 29 -12 14 -17 -21 -63 -38 -85 -30 -64 22 -83 94 -38 138 24
25 24 25 2 25 -12 -1 -37 -7 -54 -15z"/>
<path d="M115 260 c-29 -30 -27 -53 2 -34 24 15 46 51 35 58 -5 3 -22 -8 -37
-24z"/>
<path d="M258 81 c-16 -16 -16 -18 4 -36 15 -12 23 -14 26 -7 2 7 10 12 18 12
20 0 17 13 -6 33 -24 20 -21 20 -42 -2z"/>
</g>
</svg>
